<svg xmlns="http://www.w3.org/2000/svg" xmlns:xlink="http://www.w3.org/1999/xlink" id="Layer_1" x="0px" y="0px" viewBox="0 0 512 512" style="enable-background:new 0 0 512 512;" xml:space="preserve"><style type="text/css">	.st0{fill:#E37826;}</style><g>	<path class="st0" d="M296,136h-4.3c17.7-19.7,16-50-3.7-67.7c-6.8-6.1-15.1-10.1-24.1-11.6V16c0-4.4-3.6-8-8-8s-8,3.6-8,8v40.7  c-26.1,4.4-43.7,29.1-39.3,55.3c1.5,9,5.5,17.3,11.6,24.1H216c-4.4,0-8,3.6-8,8v32c0,4.4,3.6,8,8,8v16c-4.4,0-8,3.6-8,8v32  c0,4.4,3.6,8,8,8h4.3c-16.3,18.2-16.3,45.8,0,64H216c-4.4,0-8,3.6-8,8v32c0,4.4,3.6,8,8,8v24c0,4.4,3.6,8,8,8h24v104  c0,4.4,3.6,8,8,8s8-3.6,8-8V392h24c4.4,0,8-3.6,8-8v-24c4.4,0,8-3.6,8-8v-32c0-4.4-3.6-8-8-8h-4.3c16.3-18.2,16.3-45.8,0-64h4.3  c4.4,0,8-3.6,8-8v-32c0-4.4-3.6-8-8-8v-16c4.4,0,8-3.6,8-8v-32C304,139.6,300.4,136,296,136z M280,376h-48v-16h48V376z M288,344  h-64v-16h64V344z M256,312c-17.7,0-32-14.3-32-32s14.3-32,32-32s32,14.3,32,32C288,297.7,273.7,312,256,312z M288,232h-64v-16h64  V232z M232,200v-16h48v16H232z M288,168h-64v-16h64V168z M256,136c-17.7,0-32-14.3-32-32s14.3-32,32-32s32,14.3,32,32  C288,121.7,273.7,136,256,136z"></path>	<path class="st0" d="M424,136h-4.3c17.7-19.7,16-50-3.7-67.7c-6.8-6.1-15.1-10.1-24.1-11.6V16c0-4.4-3.6-8-8-8s-8,3.6-8,8v40.7  c-26.1,4.4-43.7,29.1-39.3,55.3c1.5,9,5.5,17.3,11.6,24.1H344c-4.4,0-8,3.6-8,8v32c0,4.4,3.6,8,8,8v16c-4.4,0-8,3.6-8,8v32  c0,4.4,3.6,8,8,8h4.3c-16.3,18.2-16.3,45.8,0,64H344c-4.4,0-8,3.6-8,8v32c0,4.4,3.6,8,8,8v24c0,4.4,3.6,8,8,8h24v104  c0,4.4,3.6,8,8,8s8-3.6,8-8V392h24c4.4,0,8-3.6,8-8v-24c4.4,0,8-3.6,8-8v-32c0-4.4-3.6-8-8-8h-4.3c16.3-18.2,16.3-45.8,0-64h4.3  c4.4,0,8-3.6,8-8v-32c0-4.4-3.6-8-8-8v-16c4.4,0,8-3.6,8-8v-32C432,139.6,428.4,136,424,136z M408,376h-48v-16h48V376z M416,344  h-64v-16h64V344z M384,312c-17.7,0-32-14.3-32-32s14.3-32,32-32s32,14.3,32,32C416,297.7,401.7,312,384,312z M416,232h-64v-16h64  V232z M360,200v-16h48v16H360z M416,168h-64v-16h64V168z M384,136c-17.7,0-32-14.3-32-32s14.3-32,32-32s32,14.3,32,32  C416,121.7,401.7,136,384,136z"></path>	<path class="st0" d="M168,136h-4.3c17.7-19.7,16-50-3.7-67.7c-6.8-6.1-15.1-10.1-24.1-11.6V16c0-4.4-3.6-8-8-8c-4.4,0-8,3.6-8,8  v40.7c-26.1,4.4-43.7,29.1-39.3,55.3c1.5,9,5.5,17.3,11.6,24.1H88c-4.4,0-8,3.6-8,8v32c0,4.4,3.6,8,8,8v16c-4.4,0-8,3.6-8,8v32  c0,4.4,3.6,8,8,8h4.3c-16.3,18.2-16.3,45.8,0,64H88c-4.4,0-8,3.6-8,8v32c0,4.4,3.6,8,8,8v24c0,4.4,3.6,8,8,8h24v104  c0,4.4,3.6,8,8,8c4.4,0,8-3.6,8-8V392h24c4.4,0,8-3.6,8-8v-24c4.4,0,8-3.6,8-8v-32c0-4.4-3.6-8-8-8h-4.3c16.3-18.2,16.3-45.8,0-64  h4.3c4.4,0,8-3.6,8-8v-32c0-4.4-3.6-8-8-8v-16c4.4,0,8-3.6,8-8v-32C176,139.6,172.4,136,168,136z M152,376h-48v-16h48V376z   M160,344H96v-16h64V344z M128,312c-17.7,0-32-14.3-32-32s14.3-32,32-32s32,14.3,32,32C160,297.7,145.7,312,128,312z M160,232H96  v-16h64V232z M104,200v-16h48v16H104z M160,168H96v-16h64V168z M128,136c-17.7,0-32-14.3-32-32s14.3-32,32-32s32,14.3,32,32  C160,121.7,145.7,136,128,136z"></path></g></svg>