<svg xmlns="http://www.w3.org/2000/svg" xmlns:xlink="http://www.w3.org/1999/xlink" id="Layer_1" x="0px" y="0px" viewBox="0 0 512 512" style="enable-background:new 0 0 512 512;" xml:space="preserve"><style type="text/css">	.st0{fill:#E37826;}</style><g>	<path class="st0" d="M488,352.4V352c0-115.8-85.3-213.8-200-229.8V116c0-15.5-12.5-28-28-28h-8c-15.5,0-28,12.5-28,28v6.2  c-114.7,16-200,114-200,229.8v0.4C13.2,354.6,6.2,365.2,8.4,376c1.9,9.3,10.1,16,19.6,16h28v4c0,15.5,12.5,28,28,28h344  c15.5,0,28-12.5,28-28v-4h28c11,0,20-8.9,20-20C504,362.5,497.3,354.3,488,352.4z M240,116c0-6.6,5.4-12,12-12h8  c6.6,0,12,5.4,12,12v4h-32V116z M103.3,199.3c84.4-84.4,221.1-84.3,305.5,0C449.2,239.8,472,294.7,472,352H40  C39.8,294.7,62.6,239.7,103.3,199.3L103.3,199.3z M440,396c0,6.6-5.4,12-12,12H84c-6.6,0-12-5.4-12-12v-4h368V396z M484,376H28  c-2.2,0-4-1.8-4-4s1.8-4,4-4h456c2.2,0,4,1.8,4,4S486.2,376,484,376z"></path>	<path class="st0" d="M216,320H72c-4.4,0-8,3.6-8,8s3.6,8,8,8h144c4.4,0,8-3.6,8-8S220.4,320,216,320z"></path>	<path class="st0" d="M248,320h-8c-4.4,0-8,3.6-8,8s3.6,8,8,8h8c4.4,0,8-3.6,8-8S252.4,320,248,320z"></path></g></svg>