<svg xmlns="http://www.w3.org/2000/svg" xmlns:xlink="http://www.w3.org/1999/xlink" id="Layer_1" x="0px" y="0px" viewBox="0 0 512 512" style="enable-background:new 0 0 512 512;" xml:space="preserve"><style type="text/css">	.st0{fill:#E37826;}</style><g>	<path class="st0" d="M376,232H136c-4.4,0-8,3.6-8,8v32c0,4.4,3.6,8,8,8h18.7l93.9,219.1c1.7,4.1,6.4,5.9,10.5,4.2  c1.9-0.8,3.4-2.3,4.2-4.2L357.3,280H376c4.4,0,8-3.6,8-8v-32C384,235.6,380.4,232,376,232z M256,475.7L172.1,280h167.7L256,475.7z   M368,264H144v-16h224V264z"></path>	<path class="st0" d="M201.2,307.2l47.5,110.8c1.7,4.1,6.4,5.9,10.5,4.2c1.9-0.8,3.4-2.3,4.2-4.2l47.5-110.8  c1.7-4.1-0.1-8.8-4.2-10.5c-1-0.4-2.1-0.6-3.2-0.6h-94.9c-4.4,0-8,3.6-8,8C200.5,305.1,200.7,306.2,201.2,307.2L201.2,307.2z   M291.3,312L256,394.5L220.7,312H291.3z"></path>	<path class="st0" d="M48,96c-17.7,0-32,14.3-32,32s14.3,32,32,32s32-14.3,32-32C80,110.3,65.7,96,48,96z M48,144  c-8.8,0-16-7.2-16-16s7.2-16,16-16s16,7.2,16,16C64,136.8,56.8,144,48,144z"></path>	<path class="st0" d="M200.2,217.9c1.1,4.3,5.5,6.9,9.7,5.8c4.2-1.1,6.8-5.4,5.8-9.6c-13.2-52.8-42.9-75.6-65.6-85.4  c-24.6-10.7-46.1-8.7-47-8.6c-4.4,0.4-7.6,4.4-7.1,8.8c0.4,4.4,4.3,7.6,8.7,7.2c13.6-0.6,27.2,2.1,39.7,7.7  C172.2,156,191,181,200.2,217.9z"></path>	<path class="st0" d="M464,40c-17.7,0-32,14.3-32,32s14.3,32,32,32s32-14.3,32-32C496,54.3,481.7,40,464,40z M464,88  c-8.8,0-16-7.2-16-16s7.2-16,16-16s16,7.2,16,16C480,80.8,472.8,88,464,88z"></path>	<path class="st0" d="M403.8,65.2c-2.7,1.7-67.1,41.8-91.6,139.9c-1.1,4.3,1.5,8.6,5.8,9.7c4.3,1.1,8.6-1.5,9.7-5.8c0,0,0-0.1,0-0.1  c11.9-47.7,34.2-80.5,50.8-99.6c18-20.8,33.5-30.4,33.6-30.5c3.8-2.3,4.9-7.2,2.6-11C412.5,64.1,407.6,62.9,403.8,65.2L403.8,65.2z  "></path>	<path class="st0" d="M152,216c4.4,0,8-3.6,8-8c0-2.1-0.8-4.2-2.3-5.7l-32-32c-3.1-3.1-8.2-3.1-11.3,0c-3.1,3.1-3.1,8.2,0,11.3  l32,32C147.8,215.2,149.9,216,152,216z"></path>	<path class="st0" d="M162.3,117.7c3.1,3.1,8.2,3.1,11.3,0c3.1-3.1,3.1-8.2,0-11.3l-16-16c-3.1-3.1-8.2-3.1-11.3,0  c-3.1,3.1-3.1,8.2,0,11.3L162.3,117.7z"></path>	<path class="st0" d="M373.5,192.4l-24,8c-4.2,1.4-6.5,5.9-5.2,10.1c1.4,4.2,5.9,6.5,10.1,5.2c0.1,0,0.1,0,0.1,0l24-8  c4.2-1.4,6.5-5.9,5.2-10.1c-1.4-4.2-5.9-6.5-10.1-5.2C373.6,192.4,373.5,192.4,373.5,192.4z"></path>	<path class="st0" d="M167.3,50.5l18.8,13.6l-7.2,22.1c-1.4,4.2,0.9,8.7,5.1,10.1c2.4,0.8,5.1,0.4,7.2-1.1L210,81.6l18.8,13.6  c3.6,2.6,8.6,1.8,11.2-1.8c1.5-2.1,1.9-4.7,1.1-7.2l-7.2-22.1l18.8-13.6c3.6-2.6,4.4-7.6,1.8-11.2c-1.5-2.1-3.9-3.3-6.5-3.3h-23.2  L217.6,14c-1.4-4.2-5.9-6.5-10.1-5.1c-2.4,0.8-4.3,2.7-5.1,5.1l-7.2,22.1H172c-4.4,0-8,3.6-8,8C164,46.6,165.2,49,167.3,50.5z   M201,52.1c3.5,0,6.5-2.2,7.6-5.5l1.4-4.2l1.4,4.2c1.1,3.3,4.1,5.5,7.6,5.5h4.4l-3.6,2.6c-2.8,2-4,5.6-2.9,8.9l1.4,4.2l-3.6-2.6  c-2.8-2-6.6-2-9.4,0l-3.6,2.6l1.4-4.2c1.1-3.3-0.1-6.9-2.9-8.9l-3.6-2.6L201,52.1z"></path>	<path class="st0" d="M259.3,73.5l18.8,13.6l-7.2,22.1c-1.4,4.2,0.9,8.7,5.1,10.1c2.4,0.8,5.1,0.4,7.2-1.1l18.8-13.6l18.8,13.6  c3.6,2.6,8.6,1.8,11.2-1.8c1.5-2.1,1.9-4.7,1.1-7.2l-7.2-22.1l18.8-13.7c3.6-2.6,4.4-7.6,1.8-11.2c-1.5-2.1-3.9-3.3-6.5-3.3h-23.2  l-7.2-22.1c-1.4-4.2-5.9-6.5-10.1-5.1c-2.4,0.8-4.3,2.7-5.1,5.1L287.2,59H264c-4.4,0-8,3.6-8,8C256,69.6,257.2,72,259.3,73.5z   M293,75c3.5,0,6.5-2.2,7.6-5.5l1.4-4.2l1.4,4.2c1.1,3.3,4.1,5.5,7.6,5.5h4.4l-3.6,2.6c-2.8,2-4,5.6-2.9,8.9l1.4,4.2l-3.6-2.6  c-2.8-2-6.6-2-9.4,0l-3.6,2.6l1.4-4.2c1.1-3.3-0.1-6.9-2.9-8.9l-3.6-2.6H293z"></path>	<path class="st0" d="M231.9,150.7l-8-48c-0.7-4.4-4.8-7.3-9.2-6.6c-4.4,0.7-7.3,4.8-6.6,9.2l8,48c0.7,4.4,4.8,7.3,9.2,6.6  S232.6,155,231.9,150.7z"></path>	<path class="st0" d="M232.4,210.5c1.4,4.2,5.9,6.5,10.1,5.1s6.5-5.9,5.1-10.1l0,0l-8-24c-1.4-4.2-5.9-6.5-10.1-5.1  s-6.5,5.9-5.1,10.1L232.4,210.5z"></path>	<path class="st0" d="M300.4,121.3c-3.7-2.5-8.6-1.5-11.1,2.2c-0.7,1.1-17.3,26.7-17.3,84.4c0,4.4,3.6,8,8,8s8-3.6,8-8  c0-52.1,14.4-75.2,14.7-75.6C305.1,128.7,304.1,123.8,300.4,121.3z"></path>	<path class="st0" d="M324.4,39.2c3.9,2,8.7,0.4,10.7-3.6c0,0,0,0,0,0l8-16c2-3.9,0.4-8.8-3.5-10.8s-8.8-0.4-10.8,3.5  c0,0,0,0.1-0.1,0.1l-8,16C318.9,32.4,320.5,37.2,324.4,39.2z"></path></g></svg>