<svg xmlns="http://www.w3.org/2000/svg" xmlns:xlink="http://www.w3.org/1999/xlink" id="Layer_1" x="0px" y="0px" viewBox="0 0 512 512" style="enable-background:new 0 0 512 512;" xml:space="preserve"><style type="text/css">	.st0{fill:#E37826;}</style><g>	<path class="st0" d="M320,296c4.4,0,8-3.6,8-8v-16c0-4.4-3.6-8-8-8s-8,3.6-8,8v16C312,292.4,315.6,296,320,296z"></path>	<path class="st0" d="M256,208c4.4,0,8-3.6,8-8v-16c0-4.4-3.6-8-8-8s-8,3.6-8,8v16C248,204.4,251.6,208,256,208z"></path>	<path class="st0" d="M184,216c4.4,0,8-3.6,8-8v-8c0-4.4-3.6-8-8-8s-8,3.6-8,8v8C176,212.4,179.6,216,184,216z"></path>	<path class="st0" d="M328,208c4.4,0,8-3.6,8-8v-8c0-4.4-3.6-8-8-8s-8,3.6-8,8v8C320,204.4,323.6,208,328,208z"></path>	<path class="st0" d="M168,352c-4.4,0-8,3.6-8,8v8c0,4.4,3.6,8,8,8s8-3.6,8-8v-8C176,355.6,172.4,352,168,352z"></path>	<path class="st0" d="M208,368c-4.4,0-8,3.6-8,8v8c0,4.4,3.6,8,8,8s8-3.6,8-8v-8C216,371.6,212.4,368,208,368z"></path>	<path class="st0" d="M264,360c-4.4,0-8,3.6-8,8v8c0,4.4,3.6,8,8,8s8-3.6,8-8v-8C272,363.6,268.4,360,264,360z"></path>	<path class="st0" d="M496,408H378.6c4.2-2.9,8-6.2,11.6-9.8c16.6-16.5,25.8-38.9,25.8-62.2c0-4.4-3.6-8-8-8h-8v-9  c17.1-4.4,27.4-21.9,23-39c-2.9-11.3-11.7-20.1-23-23v-9h8c4.4,0,8-3.6,8-8c-0.1-48.6-39.4-87.9-88-88h-44.3  c2.8-4.9,4.3-10.4,4.3-16c0-14.6-9.9-27.3-24-31V64c0-4.4-3.6-8-8-8s-8,3.6-8,8v41c-14.1,3.7-24,16.4-24,31c0,5.6,1.5,11.1,4.3,16  H184c-48.6,0-88,39.4-88,88c0,4.4,3.6,8,8,8h8v9c-17.1,4.4-27.4,21.9-23,39c2.9,11.3,11.7,20.1,23,23v9h-8c-4.4,0-8,3.6-8,8  c0,28.7,14,55.5,37.5,72H16c-4.4,0-8,3.6-8,8v32c0,4.4,3.6,8,8,8h480c4.4,0,8-3.6,8-8v-32C504,411.6,500.4,408,496,408z M408,288  c0,8.8-7.2,16-16,16h-40v-32h40C400.8,272,408,279.2,408,288z M320,304c-4.4,0-8,3.6-8,8v52c0,2.2-1.8,4-4,4c-2.2,0-4-1.8-4-4  c0,0,0,0,0,0V264c0-4.4-3.6-8-8-8H128v-8h256v8h-40c-4.4,0-8,3.6-8,8v76c0,2.2-1.8,4-4,4c-2.2,0-4-1.8-4-4c0,0,0,0,0,0v-28  C328,307.6,324.4,304,320,304z M352,320h32v8h-32V320z M256,120c8.8,0,16,7.2,16,16s-7.2,16-16,16c-8.8,0-16-7.2-16-16  C240,127.2,247.2,120,256,120z M133.1,189.1c13.5-13.5,31.8-21.1,50.9-21.1h144c36.7,0,67.4,27.6,71.6,64H112.4  C114.2,215.8,121.5,200.6,133.1,189.1z M104,288c0-8.8,7.2-16,16-16h168v32H120C111.2,304,104,296.8,104,288z M288,320v8H128v-8  H288z M112.4,344H288v20c0,11,9,20,20,20s20-9,20-20v-4.4c1.3,0.3,2.7,0.4,4,0.4c9.5,0,17.7-6.7,19.6-16h48  c-4.1,36.4-34.9,64-71.6,64H184C147.3,408,116.6,380.4,112.4,344z M488,440H24v-16h464V440z"></path></g></svg>